<?xml version="1.0" encoding="utf-8"?>
<!-- Generator: Adobe Illustrator 18.0.0, SVG Export Plug-In . SVG Version: 6.00 Build 0)  -->
<!DOCTYPE svg PUBLIC "-//W3C//DTD SVG 1.1//EN" "http://www.w3.org/Graphics/SVG/1.1/DTD/svg11.dtd">
<svg version="1.1" id="Calque_1" xmlns="http://www.w3.org/2000/svg" xmlns:xlink="http://www.w3.org/1999/xlink" x="0px" y="0px"
	 viewBox="0 0 595.3 841.9" enable-background="new 0 0 595.3 841.9" xml:space="preserve">
<linearGradient id="SVGID_1_" gradientUnits="userSpaceOnUse" x1="152.1337" y1="192.4016" x2="460.0433" y2="192.4016">
	<stop  offset="0" style="stop-color:#FFFFFF"/>
	<stop  offset="1" style="stop-color:#000000"/>
</linearGradient>
<path fill="url(#SVGID_1_)" stroke="#B42025" stroke-width="5" stroke-miterlimit="10" d="M451.5,302H160.6c-4.7,0-8.5-3.8-8.5-8.5
	V91.3c0-4.7,3.8-8.5,8.5-8.5h290.9c4.7,0,8.5,3.8,8.5,8.5v202.2C460,298.2,456.2,302,451.5,302z"/>
<circle fill="#FFFFFF" stroke="#535354" stroke-width="2" stroke-miterlimit="10" cx="298.2" cy="205.6" r="84.3"/>
<g>
	<ellipse fill="#FFFFFF" stroke="#535354" stroke-width="2" stroke-miterlimit="10" cx="410.4" cy="120.9" rx="18.6" ry="17.9"/>
	<path fill="#FFFFFF" stroke="#535354" stroke-width="2" stroke-miterlimit="10" d="M410.4,139.2c-10.5,0-19.1-8.2-19.1-18.4
		c0-10.1,8.6-18.4,19.1-18.4s19.1,8.2,19.1,18.4C429.4,131,420.9,139.2,410.4,139.2z M410.4,103.5c-10,0-18.1,7.8-18.1,17.4
		s8.1,17.4,18.1,17.4s18.1-7.8,18.1-17.4S420.3,103.5,410.4,103.5z"/>
</g>
<g>
	<circle fill="#B42024" stroke="#535354" stroke-miterlimit="10" cx="298.2" cy="205.6" r="80.8"/>
	<path stroke="#535354" stroke-miterlimit="10" d="M272.7,282.8c-42.6-14.1-65.7-60.1-51.7-102.7s60.1-65.7,102.7-51.7
		s65.7,60.1,51.7,102.7C361.3,273.7,315.3,296.8,272.7,282.8z M323.4,129.4c-42-13.9-87.5,9-101.4,51.1s9,87.5,51.1,101.4
		s87.5-9,101.4-51.1S365.4,143.3,323.4,129.4z"/>
</g>
<g>
	<polygon fill="#FFFFFF" points="311.2,237.7 279.8,227.6 272.8,195.5 297.2,173.5 328.6,183.7 335.6,215.7 	"/>
	<path d="M279.4,227.9l-7.1-32.6l24.8-22.3l32,10.3l7.1,32.6l-24.8,22.3L279.4,227.9z M273.3,195.7l6.9,31.5l30.9,9.9l24-21.6
		l-6.9-31.5l-30.9-9.9L273.3,195.7z"/>
</g>
<polygon fill="#FFFFFF" points="334.1,216.7 315.5,125.8 318.5,125.2 337.1,216.1 "/>
<polygon fill="#FFFFFF" points="311.4,238.1 309.4,235.9 376.1,179.8 378.1,182 "/>
<polygon fill="#FFFFFF" points="279.3,229 280.2,226.1 364.7,254 363.7,256.8 "/>
<polygon fill="#FFFFFF" points="290.2,288 271.3,197.6 274.2,197 293.1,287.4 "/>
<polygon fill="#FFFFFF" points="224,241.9 222,239.6 296.2,172.4 298.2,174.6 "/>
<polygon fill="#FFFFFF" points="328.1,185.1 234.8,154 235.7,151.2 329.1,182.2 "/>
<path fill="#FFFFFF" stroke="#535354" stroke-width="2" stroke-miterlimit="10" d="M210.5,83.8h-39.5c-3.1,0-5.7-2.5-5.7-5.7v0
	c0-3.1,2.5-5.7,5.7-5.7h39.5c3.1,0,5.7,2.5,5.7,5.7v0C216.2,81.3,213.7,83.8,210.5,83.8z"/>
<path fill="#FFFFFF" stroke="#535354" stroke-width="2" stroke-miterlimit="10" d="M236.2,124.4h-46.7c-1.6,0-2.8-1.3-2.8-2.8v-15.7
	c0-1.6,1.3-2.8,2.8-2.8h46.7c1.6,0,2.8,1.3,2.8,2.8v15.7C239.1,123.1,237.8,124.4,236.2,124.4z"/>
<line fill="#F9D024" stroke="#F89838" stroke-width="2" stroke-miterlimit="10" x1="320.2" y1="26.7" x2="263.5" y2="62.6"/>
<line fill="#F9D024" stroke="#F89838" stroke-width="2" stroke-miterlimit="10" x1="263.5" y1="62.6" x2="290" y2="56.1"/>
<line fill="#F9D024" stroke="#F89838" stroke-width="2" stroke-miterlimit="10" x1="290" y1="56.1" x2="248.8" y2="85.9"/>
<line fill="#F9D024" stroke="#F89838" stroke-width="2" stroke-miterlimit="10" x1="248.8" y1="85.9" x2="269.7" y2="81.3"/>
<line fill="#F9D024" stroke="#F89838" stroke-width="2" stroke-miterlimit="10" x1="269.7" y1="81.4" x2="220" y2="118.3"/>
<line fill="#F9D024" stroke="#F89838" stroke-width="2" stroke-miterlimit="10" x1="220" y1="118.3" x2="302.4" y2="70.8"/>
<path fill="#F9D024" stroke="#F89838" stroke-width="2" stroke-miterlimit="10" d="M302.4,70.5c-5.6,0.7-11.2,1.5-16.9,2.2"/>
<path fill="#F9D024" stroke="#F89838" stroke-width="2" stroke-miterlimit="10" d="M285.7,72.3c9.6-7.8,19.2-15.6,28.7-23.4"/>
<line fill="#F9D024" stroke="#F89838" stroke-width="2" stroke-miterlimit="10" x1="313.9" y1="48.7" x2="298.2" y2="51.9"/>
<line fill="#F9D024" stroke="#F89838" stroke-width="2" stroke-miterlimit="10" x1="298.9" y1="51.6" x2="320.2" y2="26.7"/>
<text transform="matrix(0.8035 0 0 1 320.19 63.8332)" fill="#FFCD33" stroke="#F89838" stroke-miterlimit="10" font-family="'NirmalaUI'" font-size="20.9363">SAY QUIZZ !</text>
<line fill="none" stroke="#525354" stroke-miterlimit="10" x1="171.4" y1="63.8" x2="175.6" y2="69.7"/>
<line fill="none" stroke="#525354" stroke-miterlimit="10" x1="213.9" y1="63.8" x2="209.6" y2="69.7"/>
</svg>
